<mxfile host="app.diagrams.net" modified="2024-02-26T18:31:49.083Z" agent="Mozilla/5.0 (Windows NT 10.0; Win64; x64) AppleWebKit/537.36 (KHTML, like Gecko) Chrome/122.0.0.0 Safari/537.36 Edg/122.0.0.0" etag="m-UqbfI6caIPG7nUM100" version="23.1.6" type="github">
  <diagram name="Page-1" id="lxUqVznezoO0cVdfgBmG">
    <mxGraphModel dx="956" dy="535" grid="1" gridSize="10" guides="1" tooltips="1" connect="1" arrows="1" fold="1" page="1" pageScale="1" pageWidth="850" pageHeight="1100" math="0" shadow="0">
      <root>
        <mxCell id="0" />
        <mxCell id="1" parent="0" />
        <mxCell id="ocRV4Swg5X49KJZOGOF2-2" value="borrowing" style="html=1;whiteSpace=wrap;" vertex="1" parent="1">
          <mxGeometry x="670" y="471.25" width="70" height="30" as="geometry" />
        </mxCell>
        <mxCell id="ocRV4Swg5X49KJZOGOF2-3" value="librarian" style="html=1;whiteSpace=wrap;" vertex="1" parent="1">
          <mxGeometry x="555" y="280" width="70" height="30" as="geometry" />
        </mxCell>
        <mxCell id="ocRV4Swg5X49KJZOGOF2-4" value="book" style="html=1;whiteSpace=wrap;" vertex="1" parent="1">
          <mxGeometry x="480" y="447.5" width="50" height="30" as="geometry" />
        </mxCell>
        <mxCell id="ocRV4Swg5X49KJZOGOF2-5" value="lecturer" style="html=1;whiteSpace=wrap;" vertex="1" parent="1">
          <mxGeometry x="30" y="480" width="70" height="30" as="geometry" />
        </mxCell>
        <mxCell id="ocRV4Swg5X49KJZOGOF2-6" value="student" style="html=1;whiteSpace=wrap;" vertex="1" parent="1">
          <mxGeometry x="30" y="420" width="70" height="30" as="geometry" />
        </mxCell>
        <mxCell id="ocRV4Swg5X49KJZOGOF2-7" value="member" style="html=1;whiteSpace=wrap;" vertex="1" parent="1">
          <mxGeometry x="165" y="450" width="75" height="30" as="geometry" />
        </mxCell>
        <mxCell id="ocRV4Swg5X49KJZOGOF2-9" value="report" style="html=1;whiteSpace=wrap;" vertex="1" parent="1">
          <mxGeometry x="470" y="120" width="70" height="30" as="geometry" />
        </mxCell>
        <mxCell id="ocRV4Swg5X49KJZOGOF2-10" value="account" style="html=1;whiteSpace=wrap;" vertex="1" parent="1">
          <mxGeometry x="210" y="660" width="70" height="30" as="geometry" />
        </mxCell>
        <mxCell id="ocRV4Swg5X49KJZOGOF2-12" value="d" style="ellipse;whiteSpace=wrap;html=1;aspect=fixed;" vertex="1" parent="1">
          <mxGeometry x="120" y="452.5" width="25" height="25" as="geometry" />
        </mxCell>
        <mxCell id="ocRV4Swg5X49KJZOGOF2-14" value="" style="endArrow=none;html=1;rounded=0;exitX=0;exitY=0;exitDx=0;exitDy=0;entryX=1;entryY=1;entryDx=0;entryDy=0;" edge="1" parent="1" source="ocRV4Swg5X49KJZOGOF2-4" target="ocRV4Swg5X49KJZOGOF2-21">
          <mxGeometry width="50" height="50" relative="1" as="geometry">
            <mxPoint x="510" y="280" as="sourcePoint" />
            <mxPoint x="560" y="230" as="targetPoint" />
          </mxGeometry>
        </mxCell>
        <mxCell id="ocRV4Swg5X49KJZOGOF2-15" value="" style="endArrow=none;html=1;rounded=0;exitX=1;exitY=0.5;exitDx=0;exitDy=0;entryX=0;entryY=0.5;entryDx=0;entryDy=0;" edge="1" parent="1" source="ocRV4Swg5X49KJZOGOF2-12" target="ocRV4Swg5X49KJZOGOF2-7">
          <mxGeometry width="50" height="50" relative="1" as="geometry">
            <mxPoint x="160" y="220" as="sourcePoint" />
            <mxPoint x="210" y="170" as="targetPoint" />
          </mxGeometry>
        </mxCell>
        <mxCell id="ocRV4Swg5X49KJZOGOF2-16" value="" style="endArrow=none;html=1;rounded=0;exitX=1;exitY=0.5;exitDx=0;exitDy=0;entryX=0;entryY=0;entryDx=0;entryDy=0;" edge="1" parent="1" source="ocRV4Swg5X49KJZOGOF2-6" target="ocRV4Swg5X49KJZOGOF2-12">
          <mxGeometry width="50" height="50" relative="1" as="geometry">
            <mxPoint x="125" y="157.5" as="sourcePoint" />
            <mxPoint x="175" y="107.5" as="targetPoint" />
          </mxGeometry>
        </mxCell>
        <mxCell id="ocRV4Swg5X49KJZOGOF2-17" value="" style="endArrow=none;html=1;rounded=0;exitX=1;exitY=0.5;exitDx=0;exitDy=0;entryX=0;entryY=1;entryDx=0;entryDy=0;" edge="1" parent="1" source="ocRV4Swg5X49KJZOGOF2-5" target="ocRV4Swg5X49KJZOGOF2-12">
          <mxGeometry width="50" height="50" relative="1" as="geometry">
            <mxPoint x="140" y="250" as="sourcePoint" />
            <mxPoint x="190" y="200" as="targetPoint" />
          </mxGeometry>
        </mxCell>
        <mxCell id="ocRV4Swg5X49KJZOGOF2-18" value="checks-out" style="rhombus;whiteSpace=wrap;html=1;" vertex="1" parent="1">
          <mxGeometry x="675" y="265" width="60" height="60" as="geometry" />
        </mxCell>
        <mxCell id="ocRV4Swg5X49KJZOGOF2-19" value="adds" style="rhombus;whiteSpace=wrap;html=1;" vertex="1" parent="1">
          <mxGeometry x="560" y="362.5" width="60" height="50" as="geometry" />
        </mxCell>
        <mxCell id="ocRV4Swg5X49KJZOGOF2-20" value="removes" style="rhombus;whiteSpace=wrap;html=1;" vertex="1" parent="1">
          <mxGeometry x="490" y="360" width="60" height="52.5" as="geometry" />
        </mxCell>
        <mxCell id="ocRV4Swg5X49KJZOGOF2-21" value="reserves" style="rhombus;whiteSpace=wrap;html=1;" vertex="1" parent="1">
          <mxGeometry x="317.5" y="400" width="65" height="50" as="geometry" />
        </mxCell>
        <mxCell id="ocRV4Swg5X49KJZOGOF2-22" value="searches" style="rhombus;whiteSpace=wrap;html=1;" vertex="1" parent="1">
          <mxGeometry x="320" y="600" width="60" height="50" as="geometry" />
        </mxCell>
        <mxCell id="ocRV4Swg5X49KJZOGOF2-23" value="returns" style="rhombus;whiteSpace=wrap;html=1;" vertex="1" parent="1">
          <mxGeometry x="320" y="525" width="60" height="50" as="geometry" />
        </mxCell>
        <mxCell id="ocRV4Swg5X49KJZOGOF2-24" value="renews" style="rhombus;whiteSpace=wrap;html=1;" vertex="1" parent="1">
          <mxGeometry x="322.5" y="322.5" width="55" height="50" as="geometry" />
        </mxCell>
        <mxCell id="ocRV4Swg5X49KJZOGOF2-25" value="borrows" style="rhombus;whiteSpace=wrap;html=1;" vertex="1" parent="1">
          <mxGeometry x="317.5" y="462.5" width="65" height="47.5" as="geometry" />
        </mxCell>
        <mxCell id="ocRV4Swg5X49KJZOGOF2-26" value="" style="endArrow=none;html=1;rounded=0;exitX=1;exitY=0.25;exitDx=0;exitDy=0;entryX=0;entryY=1;entryDx=0;entryDy=0;" edge="1" parent="1" source="ocRV4Swg5X49KJZOGOF2-7" target="ocRV4Swg5X49KJZOGOF2-21">
          <mxGeometry width="50" height="50" relative="1" as="geometry">
            <mxPoint x="290" y="280" as="sourcePoint" />
            <mxPoint x="340" y="230" as="targetPoint" />
          </mxGeometry>
        </mxCell>
        <mxCell id="ocRV4Swg5X49KJZOGOF2-27" value="" style="endArrow=none;html=1;rounded=0;exitX=1;exitY=1;exitDx=0;exitDy=0;entryX=0.5;entryY=0;entryDx=0;entryDy=0;" edge="1" parent="1" source="ocRV4Swg5X49KJZOGOF2-24" target="ocRV4Swg5X49KJZOGOF2-4">
          <mxGeometry width="50" height="50" relative="1" as="geometry">
            <mxPoint x="430" y="210" as="sourcePoint" />
            <mxPoint x="480" y="160" as="targetPoint" />
          </mxGeometry>
        </mxCell>
        <mxCell id="ocRV4Swg5X49KJZOGOF2-28" value="" style="endArrow=none;html=1;rounded=0;entryX=0;entryY=0;entryDx=0;entryDy=0;exitX=0.75;exitY=1;exitDx=0;exitDy=0;" edge="1" parent="1" source="ocRV4Swg5X49KJZOGOF2-7" target="ocRV4Swg5X49KJZOGOF2-22">
          <mxGeometry width="50" height="50" relative="1" as="geometry">
            <mxPoint x="240" y="320" as="sourcePoint" />
            <mxPoint x="300" y="370" as="targetPoint" />
          </mxGeometry>
        </mxCell>
        <mxCell id="ocRV4Swg5X49KJZOGOF2-29" value="" style="endArrow=none;html=1;rounded=0;exitX=1;exitY=0.5;exitDx=0;exitDy=0;entryX=0;entryY=0.5;entryDx=0;entryDy=0;" edge="1" parent="1" source="ocRV4Swg5X49KJZOGOF2-25" target="ocRV4Swg5X49KJZOGOF2-4">
          <mxGeometry width="50" height="50" relative="1" as="geometry">
            <mxPoint x="425" y="310" as="sourcePoint" />
            <mxPoint x="475" y="260" as="targetPoint" />
          </mxGeometry>
        </mxCell>
        <mxCell id="ocRV4Swg5X49KJZOGOF2-30" value="" style="endArrow=none;html=1;rounded=0;exitX=1;exitY=0.5;exitDx=0;exitDy=0;entryX=0;entryY=0.5;entryDx=0;entryDy=0;" edge="1" parent="1" source="ocRV4Swg5X49KJZOGOF2-7" target="ocRV4Swg5X49KJZOGOF2-25">
          <mxGeometry width="50" height="50" relative="1" as="geometry">
            <mxPoint x="295" y="300" as="sourcePoint" />
            <mxPoint x="345" y="250" as="targetPoint" />
          </mxGeometry>
        </mxCell>
        <mxCell id="ocRV4Swg5X49KJZOGOF2-31" value="" style="endArrow=none;html=1;rounded=0;exitX=1;exitY=0;exitDx=0;exitDy=0;entryX=0;entryY=1;entryDx=0;entryDy=0;" edge="1" parent="1" source="ocRV4Swg5X49KJZOGOF2-7" target="ocRV4Swg5X49KJZOGOF2-24">
          <mxGeometry width="50" height="50" relative="1" as="geometry">
            <mxPoint x="250" y="245" as="sourcePoint" />
            <mxPoint x="300" y="195" as="targetPoint" />
          </mxGeometry>
        </mxCell>
        <mxCell id="ocRV4Swg5X49KJZOGOF2-32" value="" style="endArrow=none;html=1;rounded=0;entryX=0;entryY=0.5;entryDx=0;entryDy=0;exitX=1;exitY=1;exitDx=0;exitDy=0;" edge="1" parent="1" source="ocRV4Swg5X49KJZOGOF2-7" target="ocRV4Swg5X49KJZOGOF2-23">
          <mxGeometry width="50" height="50" relative="1" as="geometry">
            <mxPoint x="240" y="390" as="sourcePoint" />
            <mxPoint x="290" y="340" as="targetPoint" />
          </mxGeometry>
        </mxCell>
        <mxCell id="ocRV4Swg5X49KJZOGOF2-33" value="" style="endArrow=none;html=1;rounded=0;entryX=0;entryY=0.75;entryDx=0;entryDy=0;exitX=1;exitY=0.5;exitDx=0;exitDy=0;" edge="1" parent="1" source="ocRV4Swg5X49KJZOGOF2-23" target="ocRV4Swg5X49KJZOGOF2-4">
          <mxGeometry width="50" height="50" relative="1" as="geometry">
            <mxPoint x="405" y="390" as="sourcePoint" />
            <mxPoint x="455" y="340" as="targetPoint" />
          </mxGeometry>
        </mxCell>
        <mxCell id="ocRV4Swg5X49KJZOGOF2-34" value="" style="endArrow=none;html=1;rounded=0;exitX=1;exitY=0;exitDx=0;exitDy=0;entryX=0.25;entryY=1;entryDx=0;entryDy=0;" edge="1" parent="1" source="ocRV4Swg5X49KJZOGOF2-22" target="ocRV4Swg5X49KJZOGOF2-4">
          <mxGeometry width="50" height="50" relative="1" as="geometry">
            <mxPoint x="440" y="410" as="sourcePoint" />
            <mxPoint x="490" y="360" as="targetPoint" />
          </mxGeometry>
        </mxCell>
        <mxCell id="ocRV4Swg5X49KJZOGOF2-37" value="" style="endArrow=none;html=1;rounded=0;exitX=1;exitY=0;exitDx=0;exitDy=0;entryX=0.25;entryY=1;entryDx=0;entryDy=0;" edge="1" parent="1" source="ocRV4Swg5X49KJZOGOF2-20" target="ocRV4Swg5X49KJZOGOF2-3">
          <mxGeometry width="50" height="50" relative="1" as="geometry">
            <mxPoint x="450" y="230" as="sourcePoint" />
            <mxPoint x="500" y="180" as="targetPoint" />
          </mxGeometry>
        </mxCell>
        <mxCell id="ocRV4Swg5X49KJZOGOF2-38" value="" style="endArrow=none;html=1;rounded=0;exitX=0.5;exitY=0;exitDx=0;exitDy=0;entryX=0.5;entryY=1;entryDx=0;entryDy=0;" edge="1" parent="1" source="ocRV4Swg5X49KJZOGOF2-19" target="ocRV4Swg5X49KJZOGOF2-3">
          <mxGeometry width="50" height="50" relative="1" as="geometry">
            <mxPoint x="630" y="282.5" as="sourcePoint" />
            <mxPoint x="570" y="320" as="targetPoint" />
          </mxGeometry>
        </mxCell>
        <mxCell id="ocRV4Swg5X49KJZOGOF2-39" value="" style="endArrow=none;html=1;rounded=0;exitX=1;exitY=0;exitDx=0;exitDy=0;entryX=0;entryY=1;entryDx=0;entryDy=0;" edge="1" parent="1" source="ocRV4Swg5X49KJZOGOF2-4" target="ocRV4Swg5X49KJZOGOF2-19">
          <mxGeometry width="50" height="50" relative="1" as="geometry">
            <mxPoint x="620" y="367.5" as="sourcePoint" />
            <mxPoint x="670" y="317.5" as="targetPoint" />
          </mxGeometry>
        </mxCell>
        <mxCell id="ocRV4Swg5X49KJZOGOF2-40" value="" style="endArrow=none;html=1;rounded=0;exitX=0.75;exitY=0;exitDx=0;exitDy=0;entryX=0.5;entryY=1;entryDx=0;entryDy=0;" edge="1" parent="1" source="ocRV4Swg5X49KJZOGOF2-4" target="ocRV4Swg5X49KJZOGOF2-20">
          <mxGeometry width="50" height="50" relative="1" as="geometry">
            <mxPoint x="530" y="322.5" as="sourcePoint" />
            <mxPoint x="580" y="272.5" as="targetPoint" />
          </mxGeometry>
        </mxCell>
        <mxCell id="ocRV4Swg5X49KJZOGOF2-42" value="Admin" style="rounded=0;whiteSpace=wrap;html=1;" vertex="1" parent="1">
          <mxGeometry x="310" y="230" width="50" height="30" as="geometry" />
        </mxCell>
        <mxCell id="ocRV4Swg5X49KJZOGOF2-43" value="manages" style="rhombus;whiteSpace=wrap;html=1;" vertex="1" parent="1">
          <mxGeometry x="400" y="265" width="60" height="50" as="geometry" />
        </mxCell>
        <mxCell id="ocRV4Swg5X49KJZOGOF2-44" value="" style="endArrow=none;html=1;rounded=0;exitX=1;exitY=0.5;exitDx=0;exitDy=0;entryX=0;entryY=0;entryDx=0;entryDy=0;" edge="1" parent="1" source="ocRV4Swg5X49KJZOGOF2-42" target="ocRV4Swg5X49KJZOGOF2-43">
          <mxGeometry width="50" height="50" relative="1" as="geometry">
            <mxPoint x="360" y="170" as="sourcePoint" />
            <mxPoint x="410" y="120" as="targetPoint" />
          </mxGeometry>
        </mxCell>
        <mxCell id="ocRV4Swg5X49KJZOGOF2-45" value="" style="endArrow=none;html=1;rounded=0;entryX=0.5;entryY=1;entryDx=0;entryDy=0;exitX=0.5;exitY=0;exitDx=0;exitDy=0;" edge="1" parent="1" source="ocRV4Swg5X49KJZOGOF2-2" target="ocRV4Swg5X49KJZOGOF2-18">
          <mxGeometry width="50" height="50" relative="1" as="geometry">
            <mxPoint x="670" y="310" as="sourcePoint" />
            <mxPoint x="720" y="260" as="targetPoint" />
          </mxGeometry>
        </mxCell>
        <mxCell id="ocRV4Swg5X49KJZOGOF2-46" value="" style="endArrow=none;html=1;rounded=0;exitX=1;exitY=0.5;exitDx=0;exitDy=0;entryX=0;entryY=0.5;entryDx=0;entryDy=0;" edge="1" parent="1" source="ocRV4Swg5X49KJZOGOF2-3" target="ocRV4Swg5X49KJZOGOF2-18">
          <mxGeometry width="50" height="50" relative="1" as="geometry">
            <mxPoint x="630" y="220" as="sourcePoint" />
            <mxPoint x="680" y="170" as="targetPoint" />
          </mxGeometry>
        </mxCell>
        <mxCell id="ocRV4Swg5X49KJZOGOF2-47" value="" style="endArrow=none;html=1;rounded=0;entryX=1;entryY=0.5;entryDx=0;entryDy=0;exitX=0;exitY=0.5;exitDx=0;exitDy=0;" edge="1" parent="1" source="ocRV4Swg5X49KJZOGOF2-3" target="ocRV4Swg5X49KJZOGOF2-43">
          <mxGeometry width="50" height="50" relative="1" as="geometry">
            <mxPoint x="485" y="190" as="sourcePoint" />
            <mxPoint x="535" y="140" as="targetPoint" />
          </mxGeometry>
        </mxCell>
        <mxCell id="ocRV4Swg5X49KJZOGOF2-48" value="checks" style="rhombus;whiteSpace=wrap;html=1;" vertex="1" parent="1">
          <mxGeometry x="210" y="563" width="55" height="52" as="geometry" />
        </mxCell>
        <mxCell id="ocRV4Swg5X49KJZOGOF2-49" value="generates" style="rhombus;whiteSpace=wrap;html=1;" vertex="1" parent="1">
          <mxGeometry x="470" y="190" width="70" height="60" as="geometry" />
        </mxCell>
        <mxCell id="ocRV4Swg5X49KJZOGOF2-50" value="" style="endArrow=none;html=1;rounded=0;entryX=0.5;entryY=1;entryDx=0;entryDy=0;exitX=0.5;exitY=0;exitDx=0;exitDy=0;" edge="1" parent="1" source="ocRV4Swg5X49KJZOGOF2-49" target="ocRV4Swg5X49KJZOGOF2-9">
          <mxGeometry width="50" height="50" relative="1" as="geometry">
            <mxPoint x="460" y="190" as="sourcePoint" />
            <mxPoint x="510" y="140" as="targetPoint" />
          </mxGeometry>
        </mxCell>
        <mxCell id="ocRV4Swg5X49KJZOGOF2-51" value="" style="endArrow=none;html=1;rounded=0;entryX=1;entryY=1;entryDx=0;entryDy=0;exitX=0;exitY=0;exitDx=0;exitDy=0;" edge="1" parent="1" source="ocRV4Swg5X49KJZOGOF2-3" target="ocRV4Swg5X49KJZOGOF2-49">
          <mxGeometry width="50" height="50" relative="1" as="geometry">
            <mxPoint x="505" y="300" as="sourcePoint" />
            <mxPoint x="555" y="250" as="targetPoint" />
          </mxGeometry>
        </mxCell>
        <mxCell id="ocRV4Swg5X49KJZOGOF2-52" value="" style="endArrow=none;html=1;rounded=0;entryX=0.5;entryY=1;entryDx=0;entryDy=0;" edge="1" parent="1" source="ocRV4Swg5X49KJZOGOF2-10" target="ocRV4Swg5X49KJZOGOF2-48">
          <mxGeometry width="50" height="50" relative="1" as="geometry">
            <mxPoint x="130" y="720" as="sourcePoint" />
            <mxPoint x="180" y="670" as="targetPoint" />
          </mxGeometry>
        </mxCell>
        <mxCell id="ocRV4Swg5X49KJZOGOF2-53" value="" style="endArrow=none;html=1;rounded=0;entryX=0.5;entryY=1;entryDx=0;entryDy=0;exitX=0.5;exitY=0;exitDx=0;exitDy=0;" edge="1" parent="1" source="ocRV4Swg5X49KJZOGOF2-48" target="ocRV4Swg5X49KJZOGOF2-7">
          <mxGeometry width="50" height="50" relative="1" as="geometry">
            <mxPoint x="140" y="575" as="sourcePoint" />
            <mxPoint x="190" y="525" as="targetPoint" />
          </mxGeometry>
        </mxCell>
        <mxCell id="ocRV4Swg5X49KJZOGOF2-62" value="memberid" style="ellipse;whiteSpace=wrap;html=1;align=center;fontStyle=4;" vertex="1" parent="1">
          <mxGeometry x="60" y="322.5" width="75" height="30" as="geometry" />
        </mxCell>
        <mxCell id="ocRV4Swg5X49KJZOGOF2-63" value="publication_date" style="ellipse;whiteSpace=wrap;html=1;align=center;" vertex="1" parent="1">
          <mxGeometry x="432.5" y="563" width="97.5" height="40" as="geometry" />
        </mxCell>
        <mxCell id="ocRV4Swg5X49KJZOGOF2-64" value="genre" style="ellipse;whiteSpace=wrap;html=1;align=center;" vertex="1" parent="1">
          <mxGeometry x="583.75" y="481.25" width="67.5" height="20" as="geometry" />
        </mxCell>
        <mxCell id="ocRV4Swg5X49KJZOGOF2-65" value="author" style="ellipse;whiteSpace=wrap;html=1;align=center;" vertex="1" parent="1">
          <mxGeometry x="555" y="509" width="60" height="29" as="geometry" />
        </mxCell>
        <mxCell id="ocRV4Swg5X49KJZOGOF2-67" value="phone" style="ellipse;whiteSpace=wrap;html=1;align=center;" vertex="1" parent="1">
          <mxGeometry x="127.5" y="362.5" width="55" height="30" as="geometry" />
        </mxCell>
        <mxCell id="ocRV4Swg5X49KJZOGOF2-68" value="email" style="ellipse;whiteSpace=wrap;html=1;align=center;" vertex="1" parent="1">
          <mxGeometry x="173.75" y="392.5" width="57.5" height="20" as="geometry" />
        </mxCell>
        <mxCell id="ocRV4Swg5X49KJZOGOF2-69" value="name" style="ellipse;whiteSpace=wrap;html=1;align=center;" vertex="1" parent="1">
          <mxGeometry x="240" y="360" width="57.5" height="20" as="geometry" />
        </mxCell>
        <mxCell id="ocRV4Swg5X49KJZOGOF2-70" value="&lt;span style=&quot;border-bottom: 1px dotted&quot;&gt;studentid&lt;/span&gt;" style="ellipse;whiteSpace=wrap;html=1;align=center;" vertex="1" parent="1">
          <mxGeometry x="32.5" y="370" width="65" height="30" as="geometry" />
        </mxCell>
        <mxCell id="ocRV4Swg5X49KJZOGOF2-71" value="&lt;span style=&quot;border-bottom: 1px dotted&quot;&gt;lecturerid&lt;/span&gt;" style="ellipse;whiteSpace=wrap;html=1;align=center;" vertex="1" parent="1">
          <mxGeometry x="22.5" y="550" width="85" height="30" as="geometry" />
        </mxCell>
        <mxCell id="ocRV4Swg5X49KJZOGOF2-72" value="" style="endArrow=none;html=1;rounded=0;entryX=0.5;entryY=1;entryDx=0;entryDy=0;exitX=0.25;exitY=0;exitDx=0;exitDy=0;" edge="1" parent="1" source="ocRV4Swg5X49KJZOGOF2-7" target="ocRV4Swg5X49KJZOGOF2-67">
          <mxGeometry width="50" height="50" relative="1" as="geometry">
            <mxPoint x="145" y="412.5" as="sourcePoint" />
            <mxPoint x="195" y="362.5" as="targetPoint" />
          </mxGeometry>
        </mxCell>
        <mxCell id="ocRV4Swg5X49KJZOGOF2-73" value="" style="endArrow=none;html=1;rounded=0;exitX=0.75;exitY=0;exitDx=0;exitDy=0;entryX=0.5;entryY=1;entryDx=0;entryDy=0;" edge="1" parent="1" source="ocRV4Swg5X49KJZOGOF2-7" target="ocRV4Swg5X49KJZOGOF2-69">
          <mxGeometry width="50" height="50" relative="1" as="geometry">
            <mxPoint x="192.5" y="447.5" as="sourcePoint" />
            <mxPoint x="242.5" y="397.5" as="targetPoint" />
          </mxGeometry>
        </mxCell>
        <mxCell id="ocRV4Swg5X49KJZOGOF2-74" value="" style="endArrow=none;html=1;rounded=0;entryX=0.5;entryY=1;entryDx=0;entryDy=0;exitX=0;exitY=0.25;exitDx=0;exitDy=0;" edge="1" parent="1" source="ocRV4Swg5X49KJZOGOF2-7" target="ocRV4Swg5X49KJZOGOF2-62">
          <mxGeometry width="50" height="50" relative="1" as="geometry">
            <mxPoint x="162.5" y="440" as="sourcePoint" />
            <mxPoint x="212.5" y="390" as="targetPoint" />
          </mxGeometry>
        </mxCell>
        <mxCell id="ocRV4Swg5X49KJZOGOF2-75" value="" style="endArrow=none;html=1;rounded=0;exitX=0.5;exitY=0;exitDx=0;exitDy=0;entryX=0.5;entryY=1;entryDx=0;entryDy=0;" edge="1" parent="1" source="ocRV4Swg5X49KJZOGOF2-6" target="ocRV4Swg5X49KJZOGOF2-70">
          <mxGeometry width="50" height="50" relative="1" as="geometry">
            <mxPoint x="70" y="402.5" as="sourcePoint" />
            <mxPoint x="120" y="352.5" as="targetPoint" />
          </mxGeometry>
        </mxCell>
        <mxCell id="ocRV4Swg5X49KJZOGOF2-76" value="" style="endArrow=none;html=1;rounded=0;entryX=0.5;entryY=1;entryDx=0;entryDy=0;exitX=0.5;exitY=0;exitDx=0;exitDy=0;" edge="1" parent="1" source="ocRV4Swg5X49KJZOGOF2-71" target="ocRV4Swg5X49KJZOGOF2-5">
          <mxGeometry width="50" height="50" relative="1" as="geometry">
            <mxPoint x="70" y="560" as="sourcePoint" />
            <mxPoint x="120" y="510" as="targetPoint" />
          </mxGeometry>
        </mxCell>
        <mxCell id="ocRV4Swg5X49KJZOGOF2-78" value="" style="endArrow=none;html=1;rounded=0;entryX=0.5;entryY=1;entryDx=0;entryDy=0;exitX=0.5;exitY=0;exitDx=0;exitDy=0;" edge="1" parent="1" source="ocRV4Swg5X49KJZOGOF2-7" target="ocRV4Swg5X49KJZOGOF2-68">
          <mxGeometry width="50" height="50" relative="1" as="geometry">
            <mxPoint x="175" y="447.5" as="sourcePoint" />
            <mxPoint x="225" y="397.5" as="targetPoint" />
          </mxGeometry>
        </mxCell>
        <mxCell id="ocRV4Swg5X49KJZOGOF2-81" value="title" style="ellipse;whiteSpace=wrap;html=1;align=center;" vertex="1" parent="1">
          <mxGeometry x="520" y="538" width="50" height="25" as="geometry" />
        </mxCell>
        <mxCell id="ocRV4Swg5X49KJZOGOF2-83" value="ISBN" style="ellipse;whiteSpace=wrap;html=1;align=center;fontStyle=4;" vertex="1" parent="1">
          <mxGeometry x="595" y="432.5" width="60" height="30" as="geometry" />
        </mxCell>
        <mxCell id="ocRV4Swg5X49KJZOGOF2-84" value="" style="endArrow=none;html=1;rounded=0;entryX=0.5;entryY=1;entryDx=0;entryDy=0;exitX=0.5;exitY=0;exitDx=0;exitDy=0;" edge="1" parent="1" source="ocRV4Swg5X49KJZOGOF2-63" target="ocRV4Swg5X49KJZOGOF2-4">
          <mxGeometry width="50" height="50" relative="1" as="geometry">
            <mxPoint x="460" y="575" as="sourcePoint" />
            <mxPoint x="510" y="525" as="targetPoint" />
          </mxGeometry>
        </mxCell>
        <mxCell id="ocRV4Swg5X49KJZOGOF2-85" value="" style="endArrow=none;html=1;rounded=0;entryX=1;entryY=1;entryDx=0;entryDy=0;exitX=0;exitY=0;exitDx=0;exitDy=0;" edge="1" parent="1" source="ocRV4Swg5X49KJZOGOF2-65" target="ocRV4Swg5X49KJZOGOF2-4">
          <mxGeometry width="50" height="50" relative="1" as="geometry">
            <mxPoint x="505" y="560" as="sourcePoint" />
            <mxPoint x="555" y="510" as="targetPoint" />
          </mxGeometry>
        </mxCell>
        <mxCell id="ocRV4Swg5X49KJZOGOF2-86" value="" style="endArrow=none;html=1;rounded=0;entryX=0.75;entryY=1;entryDx=0;entryDy=0;exitX=0.5;exitY=0;exitDx=0;exitDy=0;" edge="1" parent="1" source="ocRV4Swg5X49KJZOGOF2-81" target="ocRV4Swg5X49KJZOGOF2-4">
          <mxGeometry width="50" height="50" relative="1" as="geometry">
            <mxPoint x="470" y="563" as="sourcePoint" />
            <mxPoint x="520" y="513" as="targetPoint" />
          </mxGeometry>
        </mxCell>
        <mxCell id="ocRV4Swg5X49KJZOGOF2-87" value="" style="endArrow=none;html=1;rounded=0;exitX=1;exitY=0.5;exitDx=0;exitDy=0;entryX=0;entryY=0;entryDx=0;entryDy=0;" edge="1" parent="1" source="ocRV4Swg5X49KJZOGOF2-4" target="ocRV4Swg5X49KJZOGOF2-64">
          <mxGeometry width="50" height="50" relative="1" as="geometry">
            <mxPoint x="545" y="540" as="sourcePoint" />
            <mxPoint x="595" y="490" as="targetPoint" />
          </mxGeometry>
        </mxCell>
        <mxCell id="ocRV4Swg5X49KJZOGOF2-88" value="" style="endArrow=none;html=1;rounded=0;exitX=1;exitY=0.25;exitDx=0;exitDy=0;entryX=0;entryY=0.5;entryDx=0;entryDy=0;" edge="1" parent="1" source="ocRV4Swg5X49KJZOGOF2-4" target="ocRV4Swg5X49KJZOGOF2-83">
          <mxGeometry width="50" height="50" relative="1" as="geometry">
            <mxPoint x="530" y="487.5" as="sourcePoint" />
            <mxPoint x="580" y="437.5" as="targetPoint" />
          </mxGeometry>
        </mxCell>
        <mxCell id="ocRV4Swg5X49KJZOGOF2-89" value="borrowing-id" style="ellipse;whiteSpace=wrap;html=1;align=center;fontStyle=4;" vertex="1" parent="1">
          <mxGeometry x="735" y="432.5" width="80" height="27" as="geometry" />
        </mxCell>
        <mxCell id="ocRV4Swg5X49KJZOGOF2-90" value="return-date" style="ellipse;whiteSpace=wrap;html=1;align=center;" vertex="1" parent="1">
          <mxGeometry x="650" y="525" width="75" height="20" as="geometry" />
        </mxCell>
        <mxCell id="ocRV4Swg5X49KJZOGOF2-91" value="due-date" style="ellipse;whiteSpace=wrap;html=1;align=center;" vertex="1" parent="1">
          <mxGeometry x="700" y="550" width="75" height="20" as="geometry" />
        </mxCell>
        <mxCell id="ocRV4Swg5X49KJZOGOF2-92" value="borrow-date" style="ellipse;whiteSpace=wrap;html=1;align=center;" vertex="1" parent="1">
          <mxGeometry x="740" y="513.5" width="85" height="20" as="geometry" />
        </mxCell>
        <mxCell id="ocRV4Swg5X49KJZOGOF2-93" value="" style="endArrow=none;html=1;rounded=0;entryX=0.5;entryY=1;entryDx=0;entryDy=0;exitX=0.5;exitY=0;exitDx=0;exitDy=0;" edge="1" parent="1" source="ocRV4Swg5X49KJZOGOF2-90" target="ocRV4Swg5X49KJZOGOF2-2">
          <mxGeometry width="50" height="50" relative="1" as="geometry">
            <mxPoint x="605" y="603" as="sourcePoint" />
            <mxPoint x="655" y="553" as="targetPoint" />
          </mxGeometry>
        </mxCell>
        <mxCell id="ocRV4Swg5X49KJZOGOF2-94" value="" style="endArrow=none;html=1;rounded=0;entryX=0.75;entryY=1;entryDx=0;entryDy=0;exitX=0.5;exitY=0;exitDx=0;exitDy=0;" edge="1" parent="1" source="ocRV4Swg5X49KJZOGOF2-91" target="ocRV4Swg5X49KJZOGOF2-2">
          <mxGeometry width="50" height="50" relative="1" as="geometry">
            <mxPoint x="615" y="608" as="sourcePoint" />
            <mxPoint x="665" y="558" as="targetPoint" />
          </mxGeometry>
        </mxCell>
        <mxCell id="ocRV4Swg5X49KJZOGOF2-95" value="" style="endArrow=none;html=1;rounded=0;entryX=1;entryY=1;entryDx=0;entryDy=0;exitX=0.5;exitY=0;exitDx=0;exitDy=0;" edge="1" parent="1" source="ocRV4Swg5X49KJZOGOF2-92" target="ocRV4Swg5X49KJZOGOF2-2">
          <mxGeometry width="50" height="50" relative="1" as="geometry">
            <mxPoint x="655" y="588" as="sourcePoint" />
            <mxPoint x="705" y="538" as="targetPoint" />
          </mxGeometry>
        </mxCell>
        <mxCell id="ocRV4Swg5X49KJZOGOF2-96" value="" style="endArrow=none;html=1;rounded=0;exitX=0.75;exitY=0;exitDx=0;exitDy=0;entryX=0;entryY=1;entryDx=0;entryDy=0;" edge="1" parent="1" source="ocRV4Swg5X49KJZOGOF2-2" target="ocRV4Swg5X49KJZOGOF2-89">
          <mxGeometry width="50" height="50" relative="1" as="geometry">
            <mxPoint x="780" y="502.5" as="sourcePoint" />
            <mxPoint x="830" y="452.5" as="targetPoint" />
          </mxGeometry>
        </mxCell>
        <mxCell id="ocRV4Swg5X49KJZOGOF2-97" value="staffid" style="ellipse;whiteSpace=wrap;html=1;align=center;fontStyle=4;" vertex="1" parent="1">
          <mxGeometry x="550" y="205" width="60" height="30" as="geometry" />
        </mxCell>
        <mxCell id="ocRV4Swg5X49KJZOGOF2-98" value="phone" style="ellipse;whiteSpace=wrap;html=1;align=center;" vertex="1" parent="1">
          <mxGeometry x="665" y="200" width="70" height="20" as="geometry" />
        </mxCell>
        <mxCell id="ocRV4Swg5X49KJZOGOF2-99" value="email" style="ellipse;whiteSpace=wrap;html=1;align=center;" vertex="1" parent="1">
          <mxGeometry x="650" y="235" width="50" height="30" as="geometry" />
        </mxCell>
        <mxCell id="ocRV4Swg5X49KJZOGOF2-100" value="name" style="ellipse;whiteSpace=wrap;html=1;align=center;" vertex="1" parent="1">
          <mxGeometry x="620" y="150" width="60" height="30" as="geometry" />
        </mxCell>
        <mxCell id="ocRV4Swg5X49KJZOGOF2-102" value="" style="endArrow=none;html=1;rounded=0;exitX=1;exitY=0;exitDx=0;exitDy=0;entryX=0;entryY=1;entryDx=0;entryDy=0;" edge="1" parent="1" source="ocRV4Swg5X49KJZOGOF2-3" target="ocRV4Swg5X49KJZOGOF2-99">
          <mxGeometry width="50" height="50" relative="1" as="geometry">
            <mxPoint x="610" y="322.5" as="sourcePoint" />
            <mxPoint x="660" y="272.5" as="targetPoint" />
          </mxGeometry>
        </mxCell>
        <mxCell id="ocRV4Swg5X49KJZOGOF2-103" value="" style="endArrow=none;html=1;rounded=0;exitX=0.75;exitY=0;exitDx=0;exitDy=0;entryX=0;entryY=0.5;entryDx=0;entryDy=0;" edge="1" parent="1" source="ocRV4Swg5X49KJZOGOF2-3" target="ocRV4Swg5X49KJZOGOF2-98">
          <mxGeometry width="50" height="50" relative="1" as="geometry">
            <mxPoint x="601.25" y="270" as="sourcePoint" />
            <mxPoint x="651.25" y="220" as="targetPoint" />
          </mxGeometry>
        </mxCell>
        <mxCell id="ocRV4Swg5X49KJZOGOF2-104" value="" style="endArrow=none;html=1;rounded=0;exitX=0.5;exitY=0;exitDx=0;exitDy=0;entryX=0;entryY=1;entryDx=0;entryDy=0;" edge="1" parent="1" source="ocRV4Swg5X49KJZOGOF2-3" target="ocRV4Swg5X49KJZOGOF2-100">
          <mxGeometry width="50" height="50" relative="1" as="geometry">
            <mxPoint x="615" y="235" as="sourcePoint" />
            <mxPoint x="665" y="185" as="targetPoint" />
          </mxGeometry>
        </mxCell>
        <mxCell id="ocRV4Swg5X49KJZOGOF2-105" value="" style="endArrow=none;html=1;rounded=0;exitX=0.25;exitY=0;exitDx=0;exitDy=0;entryX=0.5;entryY=1;entryDx=0;entryDy=0;" edge="1" parent="1" source="ocRV4Swg5X49KJZOGOF2-3" target="ocRV4Swg5X49KJZOGOF2-97">
          <mxGeometry width="50" height="50" relative="1" as="geometry">
            <mxPoint x="583.75" y="240" as="sourcePoint" />
            <mxPoint x="633.75" y="190" as="targetPoint" />
          </mxGeometry>
        </mxCell>
        <mxCell id="ocRV4Swg5X49KJZOGOF2-112" value="pays" style="rhombus;whiteSpace=wrap;html=1;" vertex="1" parent="1">
          <mxGeometry x="135" y="533.5" width="55" height="52" as="geometry" />
        </mxCell>
        <mxCell id="ocRV4Swg5X49KJZOGOF2-114" value="fine" style="html=1;whiteSpace=wrap;" vertex="1" parent="1">
          <mxGeometry x="127.5" y="650" width="70" height="30" as="geometry" />
        </mxCell>
        <mxCell id="ocRV4Swg5X49KJZOGOF2-115" value="" style="endArrow=none;html=1;rounded=0;entryX=0.5;entryY=1;entryDx=0;entryDy=0;exitX=0.5;exitY=0;exitDx=0;exitDy=0;" edge="1" parent="1" source="ocRV4Swg5X49KJZOGOF2-114" target="ocRV4Swg5X49KJZOGOF2-112">
          <mxGeometry width="50" height="50" relative="1" as="geometry">
            <mxPoint x="115" y="660" as="sourcePoint" />
            <mxPoint x="165" y="610" as="targetPoint" />
          </mxGeometry>
        </mxCell>
        <mxCell id="ocRV4Swg5X49KJZOGOF2-116" value="" style="endArrow=none;html=1;rounded=0;entryX=0.25;entryY=1;entryDx=0;entryDy=0;exitX=0.5;exitY=0;exitDx=0;exitDy=0;" edge="1" parent="1" source="ocRV4Swg5X49KJZOGOF2-112" target="ocRV4Swg5X49KJZOGOF2-7">
          <mxGeometry width="50" height="50" relative="1" as="geometry">
            <mxPoint x="140" y="570" as="sourcePoint" />
            <mxPoint x="157.5" y="520" as="targetPoint" />
          </mxGeometry>
        </mxCell>
        <mxCell id="ocRV4Swg5X49KJZOGOF2-117" value="fineid" style="ellipse;whiteSpace=wrap;html=1;align=center;fontStyle=4;" vertex="1" parent="1">
          <mxGeometry x="40" y="615" width="70" height="20" as="geometry" />
        </mxCell>
        <mxCell id="ocRV4Swg5X49KJZOGOF2-118" value="late-dates" style="ellipse;whiteSpace=wrap;html=1;align=center;" vertex="1" parent="1">
          <mxGeometry x="25" y="670" width="75" height="30" as="geometry" />
        </mxCell>
        <mxCell id="ocRV4Swg5X49KJZOGOF2-119" value="charge-for-day" style="ellipse;whiteSpace=wrap;html=1;align=center;" vertex="1" parent="1">
          <mxGeometry x="100" y="720" width="75" height="40" as="geometry" />
        </mxCell>
        <mxCell id="ocRV4Swg5X49KJZOGOF2-120" value="" style="endArrow=none;html=1;rounded=0;exitX=1;exitY=0.5;exitDx=0;exitDy=0;entryX=0;entryY=0.5;entryDx=0;entryDy=0;" edge="1" parent="1" source="ocRV4Swg5X49KJZOGOF2-118" target="ocRV4Swg5X49KJZOGOF2-114">
          <mxGeometry width="50" height="50" relative="1" as="geometry">
            <mxPoint x="85" y="740" as="sourcePoint" />
            <mxPoint x="135" y="690" as="targetPoint" />
          </mxGeometry>
        </mxCell>
        <mxCell id="ocRV4Swg5X49KJZOGOF2-121" value="" style="endArrow=none;html=1;rounded=0;entryX=0.25;entryY=1;entryDx=0;entryDy=0;exitX=0.5;exitY=0;exitDx=0;exitDy=0;" edge="1" parent="1" source="ocRV4Swg5X49KJZOGOF2-119" target="ocRV4Swg5X49KJZOGOF2-114">
          <mxGeometry width="50" height="50" relative="1" as="geometry">
            <mxPoint x="85" y="740" as="sourcePoint" />
            <mxPoint x="135" y="690" as="targetPoint" />
          </mxGeometry>
        </mxCell>
        <mxCell id="ocRV4Swg5X49KJZOGOF2-122" value="" style="endArrow=none;html=1;rounded=0;exitX=1;exitY=0.5;exitDx=0;exitDy=0;entryX=0;entryY=0;entryDx=0;entryDy=0;" edge="1" parent="1" source="ocRV4Swg5X49KJZOGOF2-117" target="ocRV4Swg5X49KJZOGOF2-114">
          <mxGeometry width="50" height="50" relative="1" as="geometry">
            <mxPoint x="85" y="670" as="sourcePoint" />
            <mxPoint x="135" y="620" as="targetPoint" />
          </mxGeometry>
        </mxCell>
        <mxCell id="ocRV4Swg5X49KJZOGOF2-123" value="reportid" style="ellipse;whiteSpace=wrap;html=1;align=center;fontStyle=4;" vertex="1" parent="1">
          <mxGeometry x="421" y="70" width="69" height="30" as="geometry" />
        </mxCell>
        <mxCell id="ocRV4Swg5X49KJZOGOF2-124" value="filter" style="ellipse;whiteSpace=wrap;html=1;align=center;" vertex="1" parent="1">
          <mxGeometry x="382.5" y="110" width="50" height="20" as="geometry" />
        </mxCell>
        <mxCell id="ocRV4Swg5X49KJZOGOF2-125" value="type" style="ellipse;whiteSpace=wrap;html=1;align=center;" vertex="1" parent="1">
          <mxGeometry x="500" y="55" width="50" height="20" as="geometry" />
        </mxCell>
        <mxCell id="ocRV4Swg5X49KJZOGOF2-126" value="generate_date" style="ellipse;whiteSpace=wrap;html=1;align=center;" vertex="1" parent="1">
          <mxGeometry x="377.5" y="175" width="90" height="30" as="geometry" />
        </mxCell>
        <mxCell id="ocRV4Swg5X49KJZOGOF2-127" value="" style="endArrow=none;html=1;rounded=0;exitX=1;exitY=0.5;exitDx=0;exitDy=0;entryX=0;entryY=0.5;entryDx=0;entryDy=0;" edge="1" parent="1" source="ocRV4Swg5X49KJZOGOF2-124" target="ocRV4Swg5X49KJZOGOF2-9">
          <mxGeometry width="50" height="50" relative="1" as="geometry">
            <mxPoint x="390" y="190" as="sourcePoint" />
            <mxPoint x="440" y="140" as="targetPoint" />
          </mxGeometry>
        </mxCell>
        <mxCell id="ocRV4Swg5X49KJZOGOF2-128" value="" style="endArrow=none;html=1;rounded=0;entryX=0.5;entryY=0;entryDx=0;entryDy=0;exitX=1;exitY=1;exitDx=0;exitDy=0;" edge="1" parent="1" source="ocRV4Swg5X49KJZOGOF2-123" target="ocRV4Swg5X49KJZOGOF2-9">
          <mxGeometry width="50" height="50" relative="1" as="geometry">
            <mxPoint x="432.5" y="140" as="sourcePoint" />
            <mxPoint x="482.5" y="90" as="targetPoint" />
          </mxGeometry>
        </mxCell>
        <mxCell id="ocRV4Swg5X49KJZOGOF2-129" value="" style="endArrow=none;html=1;rounded=0;exitX=0.75;exitY=0;exitDx=0;exitDy=0;entryX=0.5;entryY=1;entryDx=0;entryDy=0;" edge="1" parent="1" source="ocRV4Swg5X49KJZOGOF2-9" target="ocRV4Swg5X49KJZOGOF2-125">
          <mxGeometry width="50" height="50" relative="1" as="geometry">
            <mxPoint x="550" y="145" as="sourcePoint" />
            <mxPoint x="600" y="95" as="targetPoint" />
          </mxGeometry>
        </mxCell>
        <mxCell id="ocRV4Swg5X49KJZOGOF2-130" value="" style="endArrow=none;html=1;rounded=0;entryX=0;entryY=0;entryDx=0;entryDy=0;exitX=1;exitY=0.5;exitDx=0;exitDy=0;" edge="1" parent="1" source="ocRV4Swg5X49KJZOGOF2-126" target="ocRV4Swg5X49KJZOGOF2-49">
          <mxGeometry width="50" height="50" relative="1" as="geometry">
            <mxPoint x="432.5" y="235" as="sourcePoint" />
            <mxPoint x="482.5" y="185" as="targetPoint" />
          </mxGeometry>
        </mxCell>
      </root>
    </mxGraphModel>
  </diagram>
</mxfile>
